<?xml version="1.0" encoding="UTF-8" standalone="no"?>
<!-- Created with Inkscape (http://www.inkscape.org/) -->

<svg
   width="76.943588mm"
   height="78.071793mm"
   viewBox="0 0 76.943588 78.071793"
   version="1.1"
   id="svg100386"
   inkscape:version="1.2.2 (732a01da63, 2022-12-09)"
   sodipodi:docname="BodyWash.svg"
   xmlns:inkscape="http://www.inkscape.org/namespaces/inkscape"
   xmlns:sodipodi="http://sodipodi.sourceforge.net/DTD/sodipodi-0.dtd"
   xmlns="http://www.w3.org/2000/svg"
   xmlns:svg="http://www.w3.org/2000/svg">
  <sodipodi:namedview
     id="namedview100388"
     pagecolor="#ffffff"
     bordercolor="#000000"
     borderopacity="0.25"
     inkscape:showpageshadow="2"
     inkscape:pageopacity="0.0"
     inkscape:pagecheckerboard="0"
     inkscape:deskcolor="#d1d1d1"
     inkscape:document-units="mm"
     showgrid="false"
     inkscape:zoom="0.93806818"
     inkscape:cx="54.900061"
     inkscape:cy="399.22471"
     inkscape:window-width="1409"
     inkscape:window-height="1230"
     inkscape:window-x="1777"
     inkscape:window-y="369"
     inkscape:window-maximized="0"
     inkscape:current-layer="layer1" />
  <defs
     id="defs100383">
    <clipPath
       clipPathUnits="userSpaceOnUse"
       id="clipEmfPath1-2">
      <path
         d="M 2.8798504,4.1597839 H 99.834815 V 189.91014 H 2.8798504 Z"
         id="path95082" />
    </clipPath>
    <clipPath
       clipPathUnits="userSpaceOnUse"
       id="clipPath100364">
      <path
         d="M 2.8798504,4.1597839 H 99.834815 V 189.91014 H 2.8798504 Z"
         id="path100362" />
    </clipPath>
    <clipPath
       clipPathUnits="userSpaceOnUse"
       id="clipPath100368">
      <path
         d="M 2.8798504,4.1597839 H 99.834815 V 189.91014 H 2.8798504 Z"
         id="path100366" />
    </clipPath>
  </defs>
  <g
     inkscape:label="Layer 1"
     inkscape:groupmode="layer"
     id="layer1"
     transform="translate(-36.271794,-43.041025)">
    <g
       id="g97963"
       transform="translate(36.271794,-1.116593)">
      <rect
         style="fill:none;stroke:#2c2cff;stroke-width:2.2;stroke-linecap:square;stroke-dasharray:none;stroke-opacity:1"
         id="rect93186"
         width="74.743591"
         height="75.871796"
         x="1.1"
         y="45.257618"
         ry="11.806891" />
      <g
         id="g95127"
         transform="matrix(1.4254006,0,0,1.4254006,-72.088124,40.778711)">
        <path
           style="fill:#ffffff;fill-opacity:1;fill-rule:evenodd;stroke:none"
           clip-path="url(#clipEmfPath1-2)"
           d="M 18.85902,82.915693 C 18.209054,83.765649 3.7198068,92.98517 7.3796167,92.135215 c 3.6498103,-0.859956 2.5098696,-0.669966 3.8498003,-0.629968 2.719858,0.1 -1.189938,5.909693 2.249883,3.779804 3.439821,-2.129889 3.009844,-5.329723 4.089787,-2.559867 1.069945,2.769856 -0.219988,7.459616 2.369877,2.769856 2.579866,-4.689756 5.809699,-10.449457 5.809699,-10.449457 0.09999,0.09 57.597008,-68.296453 60.586853,-71.806271 1.179938,-1.379928 2.149888,4.869747 4.009792,5.029739 1.769908,0.149992 0.109994,-2.549867 1.579917,-2.189886 1.029947,0.249987 1.949899,3.529817 2.339879,0.429978 0.179991,-1.389928 0.659966,-1.859904 0.909953,-1.989897 0,0 2.469871,2.139889 3.769804,1.829905 2.229889,-0.529973 -7.979586,-11.2694148 -7.979586,-11.2694148 -6.54966,-1.2499351 -6.33967,0.9599501 -6.33967,0.9599501 v 0 z"
           id="path95088"
           transform="matrix(0.26458333,0,0,0.26458333,63.978206,4.0876662)" />
        <path
           style="fill:none;stroke:#000000;stroke-width:0.95995px;stroke-linecap:butt;stroke-linejoin:miter;stroke-miterlimit:8;stroke-dasharray:none;stroke-opacity:1"
           clip-path="url(#clipEmfPath1-2)"
           d="M 18.85902,82.915693 C 18.209054,83.765649 3.7198068,92.98517 7.3796167,92.135215 c 3.6498103,-0.859956 2.5098696,-0.669966 3.8498003,-0.629968 2.719858,0.1 -1.189938,5.909693 2.249883,3.779804 3.439821,-2.129889 3.009844,-5.329723 4.089787,-2.559867 1.069945,2.769856 -0.219988,7.459616 2.369877,2.769856 2.579866,-4.689756 5.809699,-10.449457 5.809699,-10.449457 0.09999,0.09 57.597008,-68.296453 60.586853,-71.806271 1.179938,-1.379928 2.149888,4.869747 4.009792,5.029739 1.769908,0.149992 0.109994,-2.549867 1.579917,-2.189886 1.029947,0.249987 1.949899,3.529817 2.339879,0.429978 0.179991,-1.389928 0.659966,-1.859904 0.909953,-1.989897 0,0 2.469871,2.139889 3.769804,1.829905 2.229889,-0.529973 -7.979586,-11.2694148 -7.979586,-11.2694148 -6.54966,-1.2499351 -6.33967,0.9599501 -6.33967,0.9599501 v 0 z"
           id="path95090"
           transform="matrix(0.26458333,0,0,0.26458333,63.978206,4.0876662)" />
        <path
           style="fill:#ffffff;fill-opacity:1;fill-rule:evenodd;stroke:none;stroke-width:0.264583"
           d="m 72.290982,20.316365 c -0.312192,0 -0.566179,0.256632 -0.566179,0.574116 0,0.0926 0.02117,0.179907 0.0635,0.261924 -0.06879,-0.02646 -0.137576,-0.03969 -0.20901,-0.03969 -0.312192,0 -0.566179,0.256633 -0.566179,0.574116 0,0.113765 0.03175,0.222239 0.09525,0.317484 -0.269861,0.05027 -0.465642,0.288381 -0.465642,0.563533 0,0.317484 0.253987,0.576762 0.566179,0.576762 0.312192,0 0.566179,-0.259278 0.566179,-0.576762 0,-0.111119 -0.03175,-0.222238 -0.09524,-0.314838 0.03704,-0.0079 0.07143,-0.01852 0.105827,-0.03175 0.09789,0.338649 0.380981,0.58999 0.732858,0.653487 -0.05291,0.0635 -0.0926,0.140221 -0.116411,0.219593 -0.08466,-0.05027 -0.182553,-0.07673 -0.283089,-0.07673 -0.312192,0 -0.563533,0.256633 -0.563533,0.574116 0,0.317484 0.251341,0.576762 0.563533,0.576762 0.253987,0 0.476225,-0.17197 0.545013,-0.41802 0.08466,0.05027 0.182553,0.07672 0.28309,0.07672 0.312192,0 0.563533,-0.259278 0.566179,-0.576762 0,0 0,0 0,0 0.468288,-0.08731 0.812229,-0.502682 0.812229,-0.984198 0,-0.552951 -0.444477,-1.002719 -0.992136,-1.002719 -0.0027,0 -0.0027,0 -0.0027,0 -0.01058,0 -0.02381,0.0026 -0.03704,0.0026 -0.132285,-0.108474 -0.293672,-0.179908 -0.462997,-0.206365 0.01587,-0.05291 0.02646,-0.111119 0.02646,-0.169324 0,-0.317484 -0.253987,-0.574116 -0.566179,-0.574116 z"
           id="path95092" />
        <path
           style="fill:none;stroke:#000000;stroke-width:0.253987px;stroke-linecap:round;stroke-linejoin:round;stroke-miterlimit:10;stroke-dasharray:none;stroke-opacity:1"
           d="m 72.290982,20.316365 c -0.312192,0 -0.566179,0.256632 -0.566179,0.574116 0,0.0926 0.02117,0.179907 0.0635,0.261924 -0.06879,-0.02646 -0.137576,-0.03969 -0.20901,-0.03969 -0.312192,0 -0.566179,0.256633 -0.566179,0.574116 0,0.113765 0.03175,0.222239 0.09525,0.317484 -0.269861,0.05027 -0.465642,0.288381 -0.465642,0.563533 0,0.317484 0.253987,0.576762 0.566179,0.576762 0.312192,0 0.566179,-0.259278 0.566179,-0.576762 0,-0.111119 -0.03175,-0.222238 -0.09524,-0.314838 0.03704,-0.0079 0.07143,-0.01852 0.105827,-0.03175 0.09789,0.338649 0.380981,0.58999 0.732858,0.653487 -0.05291,0.0635 -0.0926,0.140221 -0.116411,0.219593 -0.08466,-0.05027 -0.182553,-0.07673 -0.283089,-0.07673 -0.312192,0 -0.563533,0.256633 -0.563533,0.574116 0,0.317484 0.251341,0.576762 0.563533,0.576762 0.253987,0 0.476225,-0.17197 0.545013,-0.41802 0.08466,0.05027 0.182553,0.07672 0.28309,0.07672 0.312192,0 0.563533,-0.259278 0.566179,-0.576762 0,0 0,0 0,0 0.468288,-0.08731 0.812229,-0.502682 0.812229,-0.984198 0,-0.552951 -0.444477,-1.002719 -0.992136,-1.002719 -0.0027,0 -0.0027,0 -0.0027,0 -0.01058,0 -0.02381,0.0026 -0.03704,0.0026 -0.132285,-0.108474 -0.293672,-0.179908 -0.462997,-0.206365 0.01587,-0.05291 0.02646,-0.111119 0.02646,-0.169324 0,-0.317484 -0.253987,-0.574116 -0.566179,-0.574116"
           id="path95094" />
        <path
           style="fill:#ffffff;fill-opacity:1;fill-rule:evenodd;stroke:none;stroke-width:0.264583"
           d="m 81.357782,12.442774 c -0.600573,0 -1.08738,0.523848 -1.08738,1.169397 0,0.0079 0,0.01587 0,0.02381 0,0 0,0 0,0 -0.01323,0 -0.02646,0 -0.03969,0 -0.256632,0 -0.505328,0.0926 -0.679944,0.256633 -0.06879,-0.248696 -0.293672,-0.420666 -0.550305,-0.420666 -0.314837,0 -0.568824,0.253987 -0.568824,0.568825 0,0.314837 0.253987,0.568824 0.568824,0.568824 0.105828,0 0.211656,-0.03175 0.30161,-0.08731 0.05027,0.410083 0.449768,0.719629 0.928639,0.722275 0.201073,-0.0026 0.396855,-0.05821 0.558242,-0.161388 0.105828,0.145514 0.277798,0.232822 0.457705,0.232822 0.314838,0 0.568825,-0.253987 0.568825,-0.568825 0,-0.02381 -0.0026,-0.04762 -0.0053,-0.07408 0.06879,-0.03175 0.132285,-0.07143 0.193136,-0.119056 -0.0079,0.03704 -0.01058,0.07672 -0.01323,0.116411 0,0.407437 0.34394,0.735503 0.767252,0.735503 0.420665,0 0.764606,-0.328066 0.764606,-0.735503 0,-0.129639 -0.03704,-0.256633 -0.103182,-0.367752 0.108473,0.113765 0.256632,0.179907 0.412728,0.179907 0.314838,0 0.568825,-0.253987 0.568825,-0.568824 0,-0.314837 -0.253987,-0.57147 -0.568825,-0.568824 -0.314838,-0.0027 -0.568825,0.253987 -0.568825,0.568824 0,0.09789 0.02646,0.195781 0.07408,0.280443 -0.103182,-0.11641 -0.243404,-0.201072 -0.3995,-0.238112 0.02116,-0.05821 0.03175,-0.121701 0.03175,-0.185198 0,-0.314838 -0.253986,-0.568825 -0.568824,-0.568825 -0.0079,0 -0.01587,0 -0.02117,0 -0.161371,-0.455058 -0.566163,-0.759313 -1.021223,-0.759313 z"
           id="path95096" />
        <path
           style="fill:none;stroke:#000000;stroke-width:0.253987px;stroke-linecap:round;stroke-linejoin:round;stroke-miterlimit:10;stroke-dasharray:none;stroke-opacity:1"
           d="m 81.357782,12.442774 c -0.600573,0 -1.08738,0.523848 -1.08738,1.169397 0,0.0079 0,0.01587 0,0.02381 0,0 0,0 0,0 -0.01323,0 -0.02646,0 -0.03969,0 -0.256632,0 -0.505328,0.0926 -0.679944,0.256633 -0.06879,-0.248696 -0.293672,-0.420666 -0.550305,-0.420666 -0.314837,0 -0.568824,0.253987 -0.568824,0.568825 0,0.314837 0.253987,0.568824 0.568824,0.568824 0.105828,0 0.211656,-0.03175 0.30161,-0.08731 0.05027,0.410083 0.449768,0.719629 0.928639,0.722275 0.201073,-0.0026 0.396855,-0.05821 0.558242,-0.161388 0.105828,0.145514 0.277798,0.232822 0.457705,0.232822 0.314838,0 0.568825,-0.253987 0.568825,-0.568825 0,-0.02381 -0.0026,-0.04762 -0.0053,-0.07408 0.06879,-0.03175 0.132285,-0.07143 0.193136,-0.119056 -0.0079,0.03704 -0.01058,0.07672 -0.01323,0.116411 0,0.407437 0.34394,0.735503 0.767252,0.735503 0.420665,0 0.764606,-0.328066 0.764606,-0.735503 0,-0.129639 -0.03704,-0.256633 -0.103182,-0.367752 0.108473,0.113765 0.256632,0.179907 0.412728,0.179907 0.314838,0 0.568825,-0.253987 0.568825,-0.568824 0,-0.314837 -0.253987,-0.57147 -0.568825,-0.568824 -0.314838,-0.0027 -0.568825,0.253987 -0.568825,0.568824 0,0.09789 0.02646,0.195781 0.07408,0.280443 -0.103182,-0.11641 -0.243404,-0.201072 -0.3995,-0.238112 0.02116,-0.05821 0.03175,-0.121701 0.03175,-0.185198 0,-0.314838 -0.253986,-0.568825 -0.568824,-0.568825 -0.0079,0 -0.01587,0 -0.02117,0 -0.161371,-0.455058 -0.566163,-0.759313 -1.021223,-0.759313"
           id="path95098" />
        <path
           style="fill:#2c2cff;fill-opacity:1;fill-rule:evenodd;stroke:none;stroke-width:0.264583"
           d="m 82.241445,9.7309355 c 0,2.0689345 -1.698537,3.7463055 -3.788637,3.7463055 -2.092745,0 -3.788636,-1.677371 -3.788636,-3.7463055 0,-2.0689342 1.695891,-3.7463053 3.788636,-3.7463053 2.0901,0 3.788637,1.6773711 3.788637,3.7463053 z"
           id="path95100" />
        <path
           style="fill:#2c2cff;fill-opacity:1;fill-rule:evenodd;stroke:none"
           clip-path="url(#clipEmfPath1-2)"
           d="m 78.755909,8.3895643 c -1.72991,-0.039998 -2.849852,0.5399719 -3.929795,1.6199157 -2.179887,2.159888 -2.179887,5.659706 0,7.809594 l 8.769544,18.479041 c -1.589917,1.799906 -1.279933,1.239935 -2.009896,2.009895 -3.899797,0.909953 -13.189314,0.789959 -26.838606,1.019947 -5.729702,-0.199989 -10.499454,-0.18999 -14.43925,0.03 -2.149888,-0.09999 -4.439769,-0.03 -6.53966,0.359981 -6.35967,1.169939 -19.019012,9.309517 -26.2286376,17.029116 -4.9797414,4.769752 -5.3797206,10.339463 -3.6798089,12.349358 1.8499039,2.179887 17.8790715,19.63898 20.3289445,20.278947 1.979897,0.519973 3.979793,0.229988 5.409719,-1.009948 1.329931,-1.159939 1.649914,-3.65981 0.529972,-5.169731 C 27.258584,79.305882 15.609189,67.3965 16.999117,66.386553 c 0,0 2.259883,-2.869851 4.509766,-3.379825 1.639915,-0.359981 5.809698,-1.9099 10.049478,-3.389823 0.739961,1.599916 1.249935,3.289829 1.309932,5.539712 0.38998,13.779284 4.489767,117.463893 4.489767,117.463893 0,3.9798 3.249831,7.19963 7.259623,7.19963 4.009791,0 7.249623,-3.21983 7.249623,-7.19963 l 1.649914,-37.12807 1.229936,-27.82855 1.239936,27.82855 1.639915,37.12807 c 0,3.9798 3.249831,7.19963 7.259623,7.19963 3.999792,0 7.249623,-3.21983 7.249623,-7.19963 0,0 4.099787,-105.954491 4.489767,-119.733775 0.109994,-3.729807 0.01,-3.639811 2.029895,-4.859748 1.319931,-1.119942 11.299413,-7.429614 19.738974,-18.039063 2.109891,-3.189834 1.709911,-7.429614 -0.94995,-10.089476 L 82.695705,10.00948 C 81.675758,8.8995378 80.225833,8.3695653 78.755909,8.3895643 Z"
           id="path95102"
           transform="matrix(0.26458333,0,0,0.26458333,63.978206,4.0876662)" />
      </g>
    </g>
  </g>
</svg>
