<?xml version="1.0" encoding="UTF-8" standalone="no"?>
<!-- Created with Inkscape (http://www.inkscape.org/) -->

<svg
   width="76.943588mm"
   height="78.071793mm"
   viewBox="0 0 76.943588 78.071793"
   version="1.1"
   id="svg101379"
   inkscape:version="1.2.2 (732a01da63, 2022-12-09)"
   sodipodi:docname="Shower.svg"
   xmlns:inkscape="http://www.inkscape.org/namespaces/inkscape"
   xmlns:sodipodi="http://sodipodi.sourceforge.net/DTD/sodipodi-0.dtd"
   xmlns="http://www.w3.org/2000/svg"
   xmlns:svg="http://www.w3.org/2000/svg">
  <sodipodi:namedview
     id="namedview101381"
     pagecolor="#ffffff"
     bordercolor="#000000"
     borderopacity="0.25"
     inkscape:showpageshadow="2"
     inkscape:pageopacity="0.0"
     inkscape:pagecheckerboard="0"
     inkscape:deskcolor="#d1d1d1"
     inkscape:document-units="mm"
     showgrid="false"
     inkscape:zoom="0.46903409"
     inkscape:cx="180.15748"
     inkscape:cy="549.00061"
     inkscape:window-width="1409"
     inkscape:window-height="1230"
     inkscape:window-x="1994"
     inkscape:window-y="303"
     inkscape:window-maximized="0"
     inkscape:current-layer="layer1" />
  <defs
     id="defs101376">
    <clipPath
       clipPathUnits="userSpaceOnUse"
       id="clipEmfPath1-7">
      <path
         d="M 0.63996676,0.15999169 H 86.555504 V 257.9066 H 0.63996676 Z"
         id="path95990" />
    </clipPath>
  </defs>
  <g
     inkscape:label="Layer 1"
     inkscape:groupmode="layer"
     id="layer1"
     transform="translate(-18.220516,-43.323077)">
    <g
       id="g97951"
       transform="translate(-102.3846,-0.834541)">
      <rect
         style="fill:none;stroke:#ff0000;stroke-width:2.2;stroke-linecap:square;stroke-dasharray:none;stroke-opacity:1"
         id="rect93186-0"
         width="74.743591"
         height="75.871796"
         x="121.70512"
         y="45.257618"
         ry="11.806891" />
      <g
         id="g96155"
         transform="matrix(1.0270989,0,0,1.0270989,-10.462981,-3.427656)">
        <path
           style="fill:#ff0000;fill-opacity:1;fill-rule:evenodd;stroke:none;stroke-width:0.264583"
           d="m 168.8779,74.112797 c 0,2.068934 -1.69854,3.746304 -3.78864,3.746304 -2.09539,0 -3.78864,-1.67737 -3.78864,-3.746304 0,-2.068934 1.69325,-3.746305 3.78864,-3.746305 2.0901,0 3.78864,1.677371 3.78864,3.746305 z"
           id="path95996" />
        <path
           style="fill:#ff0000;fill-opacity:1;fill-rule:evenodd;stroke:none"
           clip-path="url(#clipEmfPath1-7)"
           d="M 84.155629,88.155421 62.946731,68.476443 c -2.169888,-2.159887 -5.699704,-2.159887 -7.869592,0 -2.179886,2.159888 -2.179886,5.649707 0,7.809595 l 14.25926,16.879123 c -1.589918,1.779908 -2.819854,3.149836 -3.419823,3.809802 -3.249831,3.529817 -8.619552,10.289467 -22.32884,10.289467 -13.719287,0 -19.089008,-6.75965 -22.33884,-10.289467 -0.599968,-0.659966 -1.829905,-2.029894 -3.419822,-3.809802 L 32.088333,76.286038 c 2.179887,-2.159888 2.179887,-5.649707 0,-7.809595 -2.169887,-2.159887 -5.699704,-2.159887 -7.869591,0 L 3.0098437,88.155421 c -2.66986136,2.639863 -3.06984058,6.889642 -0.9499507,10.089476 7.9195887,12.359363 16.139162,25.278683 16.639136,26.138643 1.639915,2.76986 2.88985,4.96974 2.999844,8.68955 0.37998,13.78928 4.489767,117.4539 4.489767,117.4539 0,3.97979 3.249831,7.19962 7.259623,7.19962 3.999792,0 7.259623,-3.21983 7.259623,-7.19962 l 1.639914,-37.11807 1.239936,-27.83856 1.229936,27.83856 1.639915,37.11807 c 0,3.97979 3.259831,7.19962 7.259623,7.19962 4.009792,0 7.259623,-3.21983 7.259623,-7.19962 0,0 4.109786,-103.66462 4.489767,-117.4539 0.109994,-3.71981 1.359929,-5.91969 2.999844,-8.68955 0.509973,-0.85996 8.719547,-13.77928 16.639136,-26.138643 2.11989,-3.199834 1.71991,-7.449613 -0.949951,-10.089476 z"
           id="path95998"
           transform="matrix(0.26458333,0,0,0.26458333,153.5355,50.222163)" />
        <path
           style="fill:#ff0000;fill-opacity:1;fill-rule:evenodd;stroke:none;stroke-width:0.264583"
           d="m 165.69248,50.259203 v 3.217166 l 3.01609,2.709193 h -3.66164 -3.66165 l 3.01345,-2.709193 v -3.217166 z"
           id="path96000" />
        <path
           style="fill:#ff0000;fill-opacity:1;fill-rule:evenodd;stroke:none;stroke-width:0.264583"
           d="m 165.08926,57.116847 c -0.17726,0 -0.32013,0.132285 -0.32013,0.296318 0,0.164033 0.14287,0.296318 0.32013,0.296318 0.17461,0 0.31484,-0.132285 0.31484,-0.296318 0,-0.164033 -0.14023,-0.296318 -0.31484,-0.296318 z"
           id="path96002" />
        <path
           style="fill:#ff0000;fill-opacity:1;fill-rule:evenodd;stroke:none;stroke-width:0.264583"
           d="m 165.08926,58.513774 c -0.17726,0 -0.32013,0.132285 -0.32013,0.296318 0,0.164033 0.14287,0.296318 0.32013,0.296318 0.17461,0 0.31484,-0.132285 0.31484,-0.296318 0,-0.164033 -0.14023,-0.296318 -0.31484,-0.296318 z"
           id="path96004" />
        <path
           style="fill:#ff0000;fill-opacity:1;fill-rule:evenodd;stroke:none;stroke-width:0.264583"
           d="m 165.08926,59.910702 c -0.17726,0 -0.32013,0.132284 -0.32013,0.296318 0,0.164033 0.14287,0.296317 0.32013,0.296317 0.17461,0 0.31484,-0.132284 0.31484,-0.296317 0,-0.164034 -0.14023,-0.296318 -0.31484,-0.296318 z"
           id="path96006" />
        <path
           style="fill:#ff0000;fill-opacity:1;fill-rule:evenodd;stroke:none;stroke-width:0.264583"
           d="m 165.08926,61.307629 c -0.17726,0 -0.32013,0.132285 -0.32013,0.296318 0,0.164033 0.14287,0.296318 0.32013,0.296318 0.17461,0 0.31484,-0.132285 0.31484,-0.296318 0,-0.164033 -0.14023,-0.296318 -0.31484,-0.296318 z"
           id="path96008" />
        <path
           style="fill:#ff0000;fill-opacity:1;fill-rule:evenodd;stroke:none;stroke-width:0.264583"
           d="m 165.08926,62.704556 c -0.17726,0 -0.32013,0.132285 -0.32013,0.296318 0,0.164033 0.14287,0.296318 0.32013,0.296318 0.17461,0 0.31484,-0.132285 0.31484,-0.296318 0,-0.164033 -0.14023,-0.296318 -0.31484,-0.296318 z"
           id="path96010" />
        <path
           style="fill:#ff0000;fill-opacity:1;fill-rule:evenodd;stroke:none;stroke-width:0.264583"
           d="m 165.08926,64.101484 c -0.17726,0 -0.32013,0.132284 -0.32013,0.296318 0,0.164033 0.14287,0.296318 0.32013,0.296318 0.17461,0 0.31484,-0.132285 0.31484,-0.296318 0,-0.164034 -0.14023,-0.296318 -0.31484,-0.296318 z"
           id="path96012" />
        <path
           style="fill:#ff0000;fill-opacity:1;fill-rule:evenodd;stroke:none;stroke-width:0.264583"
           d="m 165.08926,65.498411 c -0.17726,0 -0.32013,0.132285 -0.32013,0.296318 0,0.164033 0.14287,0.296318 0.32013,0.296318 0.17461,0 0.31484,-0.132285 0.31484,-0.296318 0,-0.164033 -0.14023,-0.296318 -0.31484,-0.296318 z"
           id="path96014" />
        <path
           style="fill:#ff0000;fill-opacity:1;fill-rule:evenodd;stroke:none;stroke-width:0.264583"
           d="m 167.17671,57.323211 c -0.0344,-0.17197 -0.19049,-0.280444 -0.35187,-0.243404 -0.15875,0.03704 -0.26193,0.206364 -0.22753,0.378335 0.0344,0.169324 0.19049,0.280443 0.35187,0.240758 0.15874,-0.03704 0.26193,-0.203719 0.22753,-0.375689 z"
           id="path96016" />
        <path
           style="fill:#ff0000;fill-opacity:1;fill-rule:evenodd;stroke:none;stroke-width:0.264583"
           d="m 167.47303,58.704264 c -0.0344,-0.158741 -0.19049,-0.261924 -0.35188,-0.227529 -0.15874,0.03704 -0.26192,0.193135 -0.22753,0.354523 0.0344,0.158742 0.19049,0.261924 0.35188,0.224884 0.15874,-0.03439 0.26192,-0.19049 0.22753,-0.351878 z"
           id="path96018" />
        <path
           style="fill:#ff0000;fill-opacity:1;fill-rule:evenodd;stroke:none;stroke-width:0.264583"
           d="m 167.76935,60.101192 c -0.0344,-0.158742 -0.19049,-0.261924 -0.34923,-0.224884 -0.16139,0.03439 -0.26457,0.19049 -0.23018,0.351877 0.0344,0.158742 0.19049,0.261924 0.35188,0.224884 0.15874,-0.03439 0.26192,-0.19049 0.22753,-0.351877 z"
           id="path96020" />
        <path
           style="fill:#ff0000;fill-opacity:1;fill-rule:evenodd;stroke:none;stroke-width:0.264583"
           d="m 168.06567,61.471662 c -0.0317,-0.17197 -0.19049,-0.280444 -0.34924,-0.243404 -0.16138,0.03704 -0.26457,0.206364 -0.23017,0.378334 0.0344,0.171971 0.19049,0.280444 0.35188,0.240759 0.15874,-0.03704 0.26192,-0.206365 0.22753,-0.375689 z"
           id="path96022" />
        <path
           style="fill:#ff0000;fill-opacity:1;fill-rule:evenodd;stroke:none;stroke-width:0.264583"
           d="m 168.36198,62.852715 c -0.0344,-0.158741 -0.19049,-0.259278 -0.34923,-0.22753 -0.16138,0.03704 -0.26457,0.193136 -0.23017,0.354524 0.0344,0.158741 0.19049,0.261924 0.35187,0.224884 0.15875,-0.03439 0.26193,-0.19049 0.22753,-0.351878 z"
           id="path96024" />
        <path
           style="fill:#ff0000;fill-opacity:1;fill-rule:evenodd;stroke:none;stroke-width:0.264583"
           d="m 168.6583,64.249643 c -0.0318,-0.158742 -0.19049,-0.261924 -0.35188,-0.224885 -0.15874,0.03439 -0.26192,0.190491 -0.22753,0.351878 0.0344,0.158742 0.1905,0.261924 0.35188,0.224884 0.15874,-0.03439 0.26193,-0.19049 0.22753,-0.351877 z"
           id="path96026" />
        <path
           style="fill:#ff0000;fill-opacity:1;fill-rule:evenodd;stroke:none;stroke-width:0.264583"
           d="m 168.60539,65.379355 c -0.16139,0.03439 -0.26457,0.19049 -0.23018,0.351877 0.0344,0.158742 0.19049,0.259279 0.35188,0.22753 0.15874,-0.03704 0.26192,-0.193135 0.22753,-0.354523 -0.0344,-0.158742 -0.19049,-0.261924 -0.34923,-0.224884 z"
           id="path96028" />
        <path
           style="fill:#ff0000;fill-opacity:1;fill-rule:evenodd;stroke:none;stroke-width:0.264583"
           d="m 168.74826,57.64334 c 0.14816,-0.0635 0.21165,-0.238112 0.14286,-0.388917 -0.0688,-0.150805 -0.24605,-0.219593 -0.39421,-0.15345 -0.14815,0.0635 -0.21165,0.238112 -0.14286,0.388917 0.0688,0.150805 0.24605,0.219593 0.39421,0.15345 z"
           id="path96030" />
        <path
           style="fill:#ff0000;fill-opacity:1;fill-rule:evenodd;stroke:none;stroke-width:0.264583"
           d="m 169.52344,58.619602 c -0.0741,-0.161387 -0.26192,-0.235467 -0.42066,-0.164033 -0.15874,0.06879 -0.22753,0.256632 -0.15345,0.41802 0.0741,0.158742 0.26192,0.232821 0.42331,0.164033 0.1561,-0.06879 0.22488,-0.256632 0.1508,-0.41802 z"
           id="path96032" />
        <path
           style="fill:#ff0000;fill-opacity:1;fill-rule:evenodd;stroke:none;stroke-width:0.264583"
           d="m 170.11873,59.974199 c -0.0688,-0.161388 -0.24341,-0.235467 -0.39421,-0.164034 -0.14816,0.06879 -0.21166,0.256633 -0.14287,0.415374 0.0688,0.161388 0.24605,0.235467 0.39421,0.166679 0.14816,-0.07143 0.21165,-0.256632 0.14287,-0.418019 z"
           id="path96034" />
        <path
           style="fill:#ff0000;fill-opacity:1;fill-rule:evenodd;stroke:none;stroke-width:0.264583"
           d="m 170.75105,61.328795 c -0.0741,-0.161388 -0.26193,-0.235467 -0.42067,-0.164034 -0.15874,0.06879 -0.22753,0.253987 -0.15345,0.415374 0.0741,0.161388 0.26193,0.235467 0.42067,0.16668 0.15874,-0.07143 0.22753,-0.256633 0.15345,-0.41802 z"
           id="path96036" />
        <path
           style="fill:#ff0000;fill-opacity:1;fill-rule:evenodd;stroke:none;stroke-width:0.264583"
           d="m 171.34633,62.683391 c -0.0688,-0.161388 -0.24605,-0.235467 -0.39421,-0.164033 -0.14816,0.06879 -0.21165,0.256632 -0.14287,0.41802 0.0688,0.158741 0.24605,0.232821 0.39421,0.164033 0.14816,-0.06879 0.21166,-0.256633 0.14287,-0.41802 z"
           id="path96038" />
        <path
           style="fill:#ff0000;fill-opacity:1;fill-rule:evenodd;stroke:none;stroke-width:0.264583"
           d="m 171.97865,64.037987 c -0.0741,-0.161387 -0.26192,-0.235467 -0.42066,-0.164033 -0.15875,0.06879 -0.22753,0.256633 -0.15346,0.415374 0.0741,0.161388 0.26193,0.235467 0.42067,0.166679 0.15874,-0.06879 0.22753,-0.256633 0.15345,-0.41802 z"
           id="path96040" />
        <path
           style="fill:#ff0000;fill-opacity:1;fill-rule:evenodd;stroke:none;stroke-width:0.264583"
           d="m 172.61362,65.392583 c -0.0741,-0.161387 -0.26193,-0.235467 -0.42067,-0.164033 -0.15874,0.06879 -0.22753,0.256633 -0.15345,0.415375 0.0741,0.161387 0.26193,0.235466 0.42067,0.166678 0.15874,-0.07143 0.22753,-0.256632 0.15345,-0.41802 z"
           id="path96042" />
        <path
           style="fill:#ff0000;fill-opacity:1;fill-rule:evenodd;stroke:none;stroke-width:0.264583"
           d="m 163.35104,57.079807 c -0.16139,-0.03704 -0.31749,0.07143 -0.35188,0.243404 -0.0344,0.17197 0.0688,0.338649 0.22753,0.375689 0.16139,0.03968 0.31748,-0.07143 0.35188,-0.240758 0.0344,-0.171971 -0.0688,-0.341295 -0.22753,-0.378335 z"
           id="path96044" />
        <path
           style="fill:#ff0000;fill-opacity:1;fill-rule:evenodd;stroke:none;stroke-width:0.264583"
           d="m 163.05472,58.47938 c -0.16139,-0.03704 -0.31749,0.06614 -0.35188,0.224884 -0.0344,0.161388 0.0688,0.317484 0.22753,0.351878 0.16139,0.03704 0.31748,-0.06614 0.35188,-0.224884 0.0344,-0.161388 -0.0688,-0.317484 -0.22753,-0.351878 z"
           id="path96046" />
        <path
           style="fill:#ff0000;fill-opacity:1;fill-rule:evenodd;stroke:none;stroke-width:0.264583"
           d="m 162.7584,59.876308 c -0.16139,-0.03704 -0.31748,0.06614 -0.35188,0.224884 -0.0344,0.161387 0.0688,0.317483 0.22753,0.351877 0.16139,0.03704 0.31749,-0.06614 0.35188,-0.224884 0.0344,-0.161387 -0.0688,-0.317483 -0.22753,-0.351877 z"
           id="path96048" />
        <path
           style="fill:#ff0000;fill-opacity:1;fill-rule:evenodd;stroke:none;stroke-width:0.264583"
           d="m 162.44356,61.228258 c -0.17197,-0.03704 -0.33865,0.07143 -0.37569,0.243404 -0.037,0.169324 0.0741,0.338649 0.24605,0.375689 0.16933,0.03969 0.33865,-0.06879 0.37569,-0.240759 0.0344,-0.17197 -0.0741,-0.341294 -0.24605,-0.378334 z"
           id="path96050" />
        <path
           style="fill:#ff0000;fill-opacity:1;fill-rule:evenodd;stroke:none;stroke-width:0.264583"
           d="m 162.14724,62.627831 c -0.17197,-0.03704 -0.33864,0.06614 -0.37568,0.224884 -0.037,0.161388 0.0741,0.317484 0.24605,0.351878 0.16932,0.03704 0.33864,-0.06614 0.37568,-0.224884 0.037,-0.161388 -0.0741,-0.317484 -0.24605,-0.351878 z"
           id="path96052" />
        <path
           style="fill:#ff0000;fill-opacity:1;fill-rule:evenodd;stroke:none;stroke-width:0.264583"
           d="m 161.85093,64.024758 c -0.17197,-0.03704 -0.33865,0.06614 -0.37569,0.224885 -0.037,0.161387 0.0741,0.317483 0.24605,0.351877 0.17197,0.03704 0.33865,-0.06614 0.37569,-0.224884 0.037,-0.161387 -0.0741,-0.317483 -0.24605,-0.351878 z"
           id="path96054" />
        <path
           style="fill:#ff0000;fill-opacity:1;fill-rule:evenodd;stroke:none;stroke-width:0.264583"
           d="m 161.55461,65.379355 c -0.17197,-0.03704 -0.33865,0.06614 -0.37569,0.224884 -0.037,0.161388 0.0741,0.317484 0.24605,0.354523 0.17197,0.03175 0.33865,-0.06879 0.37569,-0.22753 0.0344,-0.161387 -0.0741,-0.317483 -0.24605,-0.351877 z"
           id="path96056" />
        <path
           style="fill:#ff0000;fill-opacity:1;fill-rule:evenodd;stroke:none;stroke-width:0.264583"
           d="m 161.39851,57.64334 c 0.15874,0.06614 0.34659,-0.0026 0.42067,-0.15345 0.0741,-0.150805 0.005,-0.325421 -0.15345,-0.388917 -0.15874,-0.06614 -0.34659,0.0026 -0.42067,0.15345 -0.0741,0.150805 -0.005,0.325421 0.15345,0.388917 z"
           id="path96058" />
        <path
           style="fill:#ff0000;fill-opacity:1;fill-rule:evenodd;stroke:none;stroke-width:0.264583"
           d="m 161.07309,58.455569 c -0.15874,-0.07143 -0.34658,0.0026 -0.42066,0.164033 -0.0741,0.161388 -0.005,0.349232 0.15345,0.41802 0.15874,0.06879 0.34658,-0.0053 0.42066,-0.164033 0.0741,-0.161388 0.005,-0.349232 -0.15345,-0.41802 z"
           id="path96060" />
        <path
           style="fill:#ff0000;fill-opacity:1;fill-rule:evenodd;stroke:none;stroke-width:0.264583"
           d="m 160.43813,59.810165 c -0.15875,-0.07143 -0.34659,0.0027 -0.42067,0.164034 -0.0741,0.161387 -0.005,0.346585 0.15345,0.418019 0.15874,0.06879 0.34659,-0.0053 0.42067,-0.166679 0.0741,-0.158741 0.005,-0.346586 -0.15345,-0.415374 z"
           id="path96062" />
        <path
           style="fill:#ff0000;fill-opacity:1;fill-rule:evenodd;stroke:none;stroke-width:0.264583"
           d="m 159.81639,61.164761 c -0.14816,-0.07143 -0.32542,0.0026 -0.39421,0.164034 -0.0688,0.161387 -0.005,0.346586 0.14287,0.41802 0.14815,0.06879 0.32542,-0.0053 0.3942,-0.16668 0.0688,-0.161387 0.005,-0.346586 -0.14286,-0.415374 z"
           id="path96064" />
        <path
           style="fill:#ff0000;fill-opacity:1;fill-rule:evenodd;stroke:none;stroke-width:0.264583"
           d="m 159.21052,62.519358 c -0.15874,-0.07143 -0.34658,0.0026 -0.42066,0.164033 -0.0741,0.161387 -0.005,0.349232 0.15345,0.41802 0.15874,0.06879 0.34658,-0.0053 0.42066,-0.164033 0.0741,-0.161388 0.005,-0.349232 -0.15345,-0.41802 z"
           id="path96066" />
        <path
           style="fill:#ff0000;fill-opacity:1;fill-rule:evenodd;stroke:none;stroke-width:0.264583"
           d="m 158.58878,63.873954 c -0.14816,-0.07143 -0.32542,0.0026 -0.39421,0.164033 -0.0688,0.161387 -0.005,0.349232 0.14287,0.41802 0.14816,0.06879 0.32542,-0.0053 0.39421,-0.166679 0.0688,-0.158741 0.005,-0.346586 -0.14287,-0.415374 z"
           id="path96068" />
        <path
           style="fill:#ff0000;fill-opacity:1;fill-rule:evenodd;stroke:none;stroke-width:0.264583"
           d="m 157.98292,65.22855 c -0.15874,-0.07143 -0.34659,0.0026 -0.42067,0.164033 -0.0741,0.161388 -0.005,0.346587 0.15345,0.41802 0.15875,0.06879 0.34659,-0.0053 0.42067,-0.166678 0.0741,-0.158742 0.005,-0.346587 -0.15345,-0.415375 z"
           id="path96070" />
      </g>
    </g>
  </g>
</svg>
